<svg class="icon" viewBox="0 0 1024 1024" version="1.1" xmlns="http://www.w3.org/2000/svg" p-id="6009"
     width="16" height="16">
    <path d="M512 128c211.2 0 384 172.8 384 384s-172.8 384-384 384-384-172.8-384-384 172.8-384 384-384m0-64C262.4 64 64 262.4 64 512s198.4 448 448 448 448-198.4 448-448-198.4-448-448-448z"
          fill="#d81e06" />
    <path d="M377.6 646.4m-32 0a32 32 0 1 0 64 0 32 32 0 1 0-64 0Z" fill="#d81e06" />
    <path d="M646.4 377.6m-32 0a32 32 0 1 0 64 0 32 32 0 1 0-64 0Z" fill="#d81e06" />
    <path d="M377.6 377.6m-32 0a32 32 0 1 0 64 0 32 32 0 1 0-64 0Z" fill="#d81e06" />
    <path d="M646.4 646.4m-32 0a32 32 0 1 0 64 0 32 32 0 1 0-64 0Z" fill="#d81e06" />
    <path d="M353.6 625.152l271.552-271.552 45.248 45.248-271.552 271.552z" fill="#d81e06" />
    <path d="M353.6 398.848l45.248-45.248 271.552 271.552-45.248 45.248z" fill="#d81e06" />
</svg>