<svg class="icon" viewBox="0 0 1024 1024" version="1.1" xmlns="http://www.w3.org/2000/svg" p-id="7181"
     width="16" height="16">
    <path d="M336.085333 204.8m-119.466666 0a119.466667 119.466667 0 1 0 238.933333 0 119.466667 119.466667 0 1 0-238.933333 0Z"
          fill="#389BFF" />
    <path d="M699.733333 204.8m-102.4 0a102.4 102.4 0 1 0 204.8 0 102.4 102.4 0 1 0-204.8 0Z"
          fill="#389BFF" />
    <path d="M853.333333 439.466667m-85.333333 0a85.333333 85.333333 0 1 0 170.666667 0 85.333333 85.333333 0 1 0-170.666667 0Z"
          fill="#389BFF" opacity=".9" />
    <path d="M805.76 740.096m-64 0a64 64 0 1 0 128 0 64 64 0 1 0-128 0Z"
          fill="#389BFF" opacity=".8" />
    <path d="M543.146667 874.666667m-64 0a64 64 0 1 0 128 0 64 64 0 1 0-128 0Z"
          fill="#389BFF" opacity=".8" />
    <path d="M219.264 744.362667m-68.266667 0a68.266667 68.266667 0 1 0 136.533334 0 68.266667 68.266667 0 1 0-136.533334 0Z"
          fill="#389BFF" opacity=".8" />
    <path d="M157.866667 486.101333m-72.533334 0a72.533333 72.533333 0 1 0 145.066667 0 72.533333 72.533333 0 1 0-145.066667 0Z"
          fill="#389BFF" opacity=".8" />
</svg>