<?xml version="1.0" standalone="no"?><!DOCTYPE svg PUBLIC "-//W3C//DTD SVG 1.1//EN"
        "http://www.w3.org/Graphics/SVG/1.1/DTD/svg11.dtd">
<svg class="icon" viewBox="0 0 1024 1024" version="1.1" xmlns="http://www.w3.org/2000/svg"
     width="16" height="16">
    <path d="M286.570667 460.757333l2.56 2.346667 192 192a38.4 38.4 0 0 1 2.368 51.733333l-2.346667 2.56-192 192a38.4 38.4 0 0 1-56.682667-51.712l2.368-2.56 125.824-125.866666L85.333333 721.28a38.4 38.4 0 0 1-3.157333-76.672L85.333333 644.48h276.586667l-127.082667-127.061333a38.4 38.4 0 0 1-2.346666-51.733334l2.346666-2.56a38.4 38.4 0 0 1 51.733334-2.368zM938.666667 798.506667a38.4 38.4 0 0 1 3.157333 76.672l-3.157333 0.128H576a38.4 38.4 0 0 1-3.157333-76.672L576 798.506667h362.666667z m0-341.333334a38.4 38.4 0 0 1 3.157333 76.672l-3.157333 0.128H576a38.4 38.4 0 0 1-3.157333-76.672L576 457.173333h362.666667zM938.666667 111.146667a38.4 38.4 0 0 1 3.157333 76.672L938.666667 187.946667H85.333333a38.4 38.4 0 0 1-3.157333-76.672L85.333333 111.146667h853.333334z"
          fill="#389BFF"/>
</svg>