<?xml version="1.0" standalone="no"?><!DOCTYPE svg PUBLIC "-//W3C//DTD SVG 1.1//EN"
        "http://www.w3.org/Graphics/SVG/1.1/DTD/svg11.dtd">
<svg class="icon" viewBox="0 0 1024 1024" version="1.1" xmlns="http://www.w3.org/2000/svg"
     width="16" height="16">
    <path fill-rule="evenodd" clip-rule="evenodd"
          d="M515.536 548.576l0 256q0 14.848-10.848 25.728t-25.728 10.848-25.728-10.848l-82.272-82.272-189.728 189.728q-5.728 5.728-13.152 5.728t-13.152-5.728l-65.152-65.152q-5.728-5.728-5.728-13.152t5.728-13.152l189.728-189.728-82.272-82.272q-10.848-10.848-10.848-25.728t10.848-25.728 25.728-10.848l256 0q14.848 0 25.728 10.848t10.848 25.728zM946.96 164.576q0 7.424-5.728 13.152l-189.728 189.728 82.272 82.272q10.848 10.848 10.848 25.728t-10.848 25.728-25.728 10.848l-256 0q-14.848 0-25.728-10.848t-10.848-25.728l0-256q0-14.848 10.848-25.728t25.728-10.848 25.728 10.848l82.272 82.272 189.728-189.728q5.728-5.728 13.152-5.728t13.152 5.728l65.152 65.152q5.728 5.728 5.728 13.152z"
          fill="#949DB4" />
</svg>