<?xml version="1.0" standalone="no"?><!DOCTYPE svg PUBLIC "-//W3C//DTD SVG 1.1//EN"
        "http://www.w3.org/Graphics/SVG/1.1/DTD/svg11.dtd">
<svg class="icon" viewBox="0 0 1024 1024" version="1.1" xmlns="http://www.w3.org/2000/svg"
     width="16" height="16">
    <path d="M843.52 515.84V330.88c0-101.12-83.2-184.32-184.32-184.32s-184.32 83.2-184.32 184.32v368.64c0 60.8-49.92 110.72-110.72 110.72s-110.72-49.92-110.72-110.72V515.84h73.6V220.8H106.24v295.04h73.6v184.32c0 101.12 83.2 184.32 184.32 184.32s184.32-83.2 184.32-184.32V330.88c0-60.8 49.92-110.72 110.72-110.72s110.72 49.92 110.72 110.72v184.32h-73.6v295.04h221.44v-294.4h-74.24zM179.84 294.4h73.6v147.2H179.84V294.4z m663.68 442.24h-73.6v-147.2h73.6v147.2z"
          fill="#389BFF"/>
</svg>