<?xml version="1.0" standalone="no"?><!DOCTYPE svg PUBLIC "-//W3C//DTD SVG 1.1//EN"
        "http://www.w3.org/Graphics/SVG/1.1/DTD/svg11.dtd">
<svg class="icon" viewBox="0 0 1024 1024" version="1.1" xmlns="http://www.w3.org/2000/svg"
     width="16" height="16">
    <path fill-rule="evenodd" clip-rule="evenodd"
          d="M245.12 906.88a126.912 126.912 0 0 1-143.168-107.968 129.536 129.536 0 0 1 0-34.112V633.472q0-90.24-69.824-93.888v-55.232q69.888-4.608 69.824-95.552v-128A127.424 127.424 0 0 1 245.248 117.12v60.672q-71.424 1.728-71.488 87.232v127.552q0 96-67.328 117.952v1.856q67.392 20.352 67.328 117.184V755.2a115.2 115.2 0 0 0 16.832 71.68 68.544 68.544 0 0 0 54.656 20.544z"
          fill="#949DB4"/>
    <path fill-rule="evenodd" clip-rule="evenodd"
          d="M992 539.648q-69.888 3.648-69.888 93.824v131.328a126.72 126.72 0 0 1-142.912 142.08v-59.456a67.648 67.648 0 0 0 54.912-21.44 113.6 113.6 0 0 0 17.024-70.784V629.76q0-96.768 67.328-117.184v-2.048q-67.264-22.08-67.328-117.952V265.024q0-85.248-71.872-87.232V117.12a127.296 127.296 0 0 1 142.848 143.744v128q0 91.008 69.824 95.552z"
          fill="#949DB4"/>
    <path fill-rule="evenodd" clip-rule="evenodd"
          d="M657.6 525.504a53.504 53.504 0 0 1 52.8-53.568 50.368 50.368 0 0 1 37.568 16 51.968 51.968 0 0 1 15.552 37.568 49.536 49.536 0 0 1-15.36 36.736 51.904 51.904 0 0 1-37.824 15.168 51.712 51.712 0 0 1-52.736-51.904z"
          fill="#949DB4"/>
    <path fill-rule="evenodd" clip-rule="evenodd"
          d="M458.304 525.504a53.12 53.12 0 0 1 53.568-53.568 49.664 49.664 0 0 1 37.184 16 51.968 51.968 0 0 1 15.552 37.568 49.6 49.6 0 0 1-15.296 36.8 54.336 54.336 0 0 1-75.328 0 50.176 50.176 0 0 1-15.36-36.8z"
          fill="#949DB4"/>
    <path fill-rule="evenodd" clip-rule="evenodd"
          d="M259.456 525.504a52.608 52.608 0 0 1 15.168-38.016 49.664 49.664 0 0 1 37.44-15.552 54.336 54.336 0 0 1 53.184 53.632 49.792 49.792 0 0 1-14.784 36.736 52.672 52.672 0 0 1-38.4 15.168 51.2 51.2 0 0 1-52.032-51.968z"
          fill="#949DB4"/>
</svg>