<?xml version="1.0" standalone="no"?><!DOCTYPE svg PUBLIC "-//W3C//DTD SVG 1.1//EN"
        "http://www.w3.org/Graphics/SVG/1.1/DTD/svg11.dtd">
<svg class="icon" viewBox="0 0 1024 1024" version="1.1" xmlns="http://www.w3.org/2000/svg"
     width="16" height="16">
    <path d="M512 51.2a460.8 460.8 0 0 0-460.8 460.8 460.8 460.8 0 1 0 460.8-460.6976V51.2z m57.088 110.336c41.472 0 75.008 11.8272 100.7616 35.5328 26.0096 23.552 39.0144 54.0672 39.0144 91.648 0 40.448-14.5408 76.1344-43.6736 107.008-29.1328 30.7712-62.6176 46.2336-100.5056 46.2336-22.1184 0-40.4992-5.4784-55.1936-16.2816-14.4384-10.8032-21.7088-24.2176-21.7088-40.0896a41.984 41.984 0 0 1 8.2432-25.6512c5.7856-7.4752 12.4928-11.2128 19.968-11.2128 7.2192 0 10.8032 4.1984 10.8032 12.6464 0 7.424 2.7648 13.2096 8.2944 17.3056a31.232 31.232 0 0 0 19.1488 6.144c19.2512 0 37.6832-13.1584 55.296-39.3728a149.3504 149.3504 0 0 0 26.7776-84.8384c0-21.1968-6.912-38.4-20.6336-51.712-13.7216-13.4144-31.4368-20.2752-53.0944-20.2752-32.512 0-64 14.5408-94.6176 43.4688-30.3616 28.8256-55.1424 66.8672-74.496 114.0224-18.944 47.0016-28.5184 91.8016-28.5184 134.144 0 39.0656 8.3968 70.144 25.2416 93.2352 16.896 22.8864 39.3216 34.304 67.2768 34.304 47.2064 0 92.3648-33.3824 135.424-100.1472l67.9936-9.728c8.3968-1.1776 12.5952 0.9216 12.5952 6.144 0 2.4576-3.2768 12.8-9.7792 31.0784-6.5024 18.3296-15.36 48.896-26.6752 91.8016 37.3248-21.7088 66.2528-45.7216 86.6816-71.936v41.5744c-16.384 19.0464-47.616 40.448-93.9008 64.3584-9.6256 64.0512-31.0272 113.4592-64 148.4288-33.024 35.1744-70.144 52.8384-111.3088 52.8384-19.712 0-35.2256-4.6592-46.592-13.824-11.0592-9.1648-16.5888-21.76-16.5888-37.888 0-44.8 43.52-88.32 130.4576-130.4576 8.192-29.44 17.1008-58.7264 26.624-87.7568-15.104 21.8624-37.1712 41.2672-66.048 58.112-28.8768 16.896-55.7568 25.2928-80.5888 25.2928-40.448 0-74.1376-17.5104-101.0688-52.3776-26.7776-35.1744-40.1408-79.616-40.1408-133.3248 0-56.576 15.1552-110.1824 45.568-160.8192A352.768 352.768 0 0 1 425.6256 207.36c49.3568-30.5664 97.1776-45.8752 143.4624-45.8752z m-55.7568 554.9568c-62.6176 31.232-93.9008 62.1568-93.9008 92.4672 0 16.128 7.68 24.2688 23.1424 24.2688 30.3104 0 53.9136-38.9632 70.7584-116.736z"
          fill="#389BFF"/>
</svg>