<?xml version="1.0" standalone="no"?>
<!DOCTYPE svg PUBLIC "-//W3C//DTD SVG 1.1//EN" "http://www.w3.org/Graphics/SVG/1.1/DTD/svg11.dtd">
<svg class="icon" viewBox="0 0 1024 1024" version="1.1" xmlns="http://www.w3.org/2000/svg" width="16" height="16">
    <circle cx="512" cy="512" r="460" fill="#389BFF"/>
    <path d="M512 720a48 48 0 1 0 0 96 48 48 0 0 0 0-96zm0-480c-123.712 0-224 87.232-224 194.048 0 17.664 14.336 31.952 32 31.952s32-14.288 32-31.952C352 328.576 423.36 272 512 272s160 56.576 160 162.048c0 61.44-49.6 98.56-97.6 134.016-44.8 32.704-86.4 63.104-86.4 125.936v16c0 17.664 14.336 32 32 32s32-14.336 32-32v-16c0-27.2 25.6-46.4 67.2-77.44C670.4 561.6 736 513.6 736 434.048 736 327.232 635.712 240 512 240z" fill="#fff"/>
</svg> 