<?xml version="1.0" standalone="no"?><!DOCTYPE svg PUBLIC "-//W3C//DTD SVG 1.1//EN"
        "http://www.w3.org/Graphics/SVG/1.1/DTD/svg11.dtd">
<svg class="icon" viewBox="0 0 1024 1024" version="1.1" xmlns="http://www.w3.org/2000/svg"
     width="16" height="16">
    <path d="M562.56 66.88a447.744 447.744 0 0 1 271.104 133.12l31.872-31.744a25.6 25.6 0 0 1 43.456 14.464l19.968 139.648a25.6 25.6 0 0 1-28.992 28.928l-139.84-19.904a25.6 25.6 0 0 1-14.464-43.52l42.688-42.624a383.68 383.68 0 0 0-232.96-114.752A382.08 382.08 0 0 0 320 179.52a382.656 382.656 0 0 0-179.008 233.6 384 384 0 0 0 641.92 371.328 32 32 0 0 1 45.056 45.376A448 448 0 1 1 562.56 66.944z"
          fill="#389BFF"/>
    <path d="M413.568 318.016l283.456 172.16a25.6 25.6 0 0 1 0 43.712l-283.52 172.16a25.6 25.6 0 0 1-38.848-21.952V339.904a25.6 25.6 0 0 1 38.912-21.888z m25.088 90.112v207.68L609.792 512 438.656 408.128z"
          fill="#389BFF"/>
</svg>