<?xml version="1.0" standalone="no"?><!DOCTYPE svg PUBLIC "-//W3C//DTD SVG 1.1//EN"
        "http://www.w3.org/Graphics/SVG/1.1/DTD/svg11.dtd">
<svg width="16" height="16" class="icon" fill="none" viewBox="0 0 1024 1024" xmlns="http://www.w3.org/2000/svg">
    <path fill-rule="evenodd"
          clip-rule="evenodd"
          d="M66.231721 1023.872016a39.099113 39.099113 0 0 1-28.15648-11.262592 38.395201 38.395201 0 0 1 0-55.225097l336.789901-336.789901a39.035121 39.035121 0 1 1 55.225097 55.161105l-336.789902 336.789901a39.419073 39.419073 0 0 1-27.068616 11.326584z"
          fill="#949DB4"/>
    <path fill-rule="evenodd"
          clip-rule="evenodd"
          d="M520.254968 889.808774h-2.23972a36.091489 36.091489 0 0 1-30.3962-21.373328l-95.988002-219.68454-235.426572-46.202225a33.787777 33.787777 0 0 1-27.004624-24.764904 38.779153 38.779153 0 0 1 10.110736-36.027497l179.177603-158.828146-29.308336-237.666292a36.603425 36.603425 0 0 1 15.742032-33.787776 34.235721 34.235721 0 0 1 37.179352-1.151856l207.270092 121.584802 217.572803-101.36333a35.387577 35.387577 0 0 1 49.593801 39.419073l-50.681665 234.274715 163.371579 175.722035a33.083865 33.083865 0 0 1 6.783152 36.027497 35.707537 35.707537 0 0 1-29.308337 22.525184l-238.818148 22.525184-116.017497 210.661668a35.963505 35.963505 0 0 1-31.612049 18.109736zM240.865892 547.387577l183.593051 36.027496a36.731409 36.731409 0 0 1 25.5968 20.285464l74.358705 171.242595L615.667042 611.635546a35.131609 35.131609 0 0 1 27.004624-18.045745l185.576803-18.045744-127.28009-136.302962a36.539433 36.539433 0 0 1-9.022872-31.548057l40.570928-182.505186-170.090738 78.838145a37.051369 37.051369 0 0 1-32.699913-1.151856l-161.067866-95.988002 22.525184 185.576803a38.395201 38.395201 0 0 1-11.262592 30.396201z"
          fill="#949DB4"/>
    <path fill-rule="evenodd"
          clip-rule="evenodd"
          d="M561.721785 131.631546a35.067617 35.067617 0 0 1-34.939633-34.939632V44.986377a35.067617 35.067617 0 0 1 34.939633-34.939633 34.363705 34.363705 0 0 1 34.939632 34.939633v51.833521a35.067617 35.067617 0 0 1-34.939632 34.811648z m287.260092 261.343332a35.003625 35.003625 0 0 1-34.939632-28.15648 36.475441 36.475441 0 0 1 28.15648-41.658793l130.671666-25.5968a35.579553 35.579553 0 0 1 13.502312 69.815273l-130.671666 24.764904a14.334208 14.334208 0 0 1-6.783152 1.151856z m-25.5968 522.686664a35.387577 35.387577 0 0 1-29.308337-15.742032l-104.754905-156.588426a35.067617 35.067617 0 0 1 58.616673-38.395201l104.754905 155.43657a33.787777 33.787777 0 0 1-10.110736 48.441945 30.588176 30.588176 0 0 1-19.1976 6.783152z"
          fill="#949DB4"/>
</svg>