<?xml version="1.0" standalone="no"?><!DOCTYPE svg PUBLIC "-//W3C//DTD SVG 1.1//EN"
        "http://www.w3.org/Graphics/SVG/1.1/DTD/svg11.dtd">
<svg class="icon" viewBox="0 0 1024 1024" version="1.1" xmlns="http://www.w3.org/2000/svg"
     width="13" height="13">
    <path d="M278.67 134.22h466.67c92.05 0 166.67 74.62 166.67 166.67s-74.62 166.67-166.67 166.67H278.67c-92.05 0-166.67-74.62-166.67-166.67s74.62-166.67 166.67-166.67zM278.67 556.44h466.67c92.05 0 166.67 74.62 166.67 166.67s-74.62 166.67-166.67 166.67H278.67c-92.05 0-166.67-74.62-166.67-166.67s74.62-166.67 166.67-166.67z"
          fill="#52adff"/>
    <path d="M278.67 300.89m-144.44 0a144.44 144.44 0 1 0 288.88 0 144.44 144.44 0 1 0-288.88 0Z" fill="#085ba6"/>
    <path d="M745.33 723.11m-144.44 0a144.44 144.44 0 1 0 288.88 0 144.44 144.44 0 1 0-288.88 0Z" fill="#085ba6"/>
</svg>