<?xml version="1.0" standalone="no"?><!DOCTYPE svg PUBLIC "-//W3C//DTD SVG 1.1//EN"
        "http://www.w3.org/Graphics/SVG/1.1/DTD/svg11.dtd">
<svg class="icon" viewBox="0 0 1024 1024" version="1.1" xmlns="http://www.w3.org/2000/svg"
     width="16" height="16">
    <path d="M896 576v-128l-96-16c-8-32-20.8-62.4-36.8-90.4l56-80-90.4-90.4-80 56c-28-16-58.4-28.8-90.4-36.8l-16-96h-128l-16 96c-32 8-62.4 20.8-90.4 36.8l-80-56-90.4 90.4 56 80c-16 28-28.8 58.4-36.8 90.4l-96 16v128l96 16c8 32 20.8 62.4 36.8 90.4l-56 80 90.4 90.4 80-56c28 16 58.4 28.8 90.4 36.8l16 96h128l16-96c32-8 62.4-20.8 90.4-36.8l80 56 90.4-90.4-56-80c16-28 28.8-58.4 36.8-90.4l96-16zM512 672c-88.4 0-160-71.6-160-160s71.6-160 160-160 160 71.6 160 160-71.6 160-160 160z" fill="#389BFF"/>
</svg> 