<svg t="1751962355927" class="icon" viewBox="0 0 1024 1024" version="1.1" xmlns="http://www.w3.org/2000/svg" p-id="6803" width="16" height="16"><path d="M1008.352978 414.758078l-99.257796-25.726392c-7.615524-24.702456-17.406912-48.572964-29.310168-71.163552l51.900756-88.250484c4.7997-8.127492 3.455784-18.430848-3.135804-25.086432l-109.177176-109.241172c-6.71958-6.655584-17.022936-7.935504-25.150428-3.1998l-88.31448 51.900756c-22.526592-11.83926-46.333104-21.630648-71.099556-29.310168L609.209924 15.423036C606.842072 6.335604 598.586588 0 589.179176 0L434.756828 0C425.413412 0 417.157928 6.335604 414.790076 15.423036L388.999688 114.744828C364.297231 122.424348 340.554715 132.215737 318.092119 144.118993L229.777639 92.090244C221.586151 87.35454 211.218799 88.570464 204.691207 95.290044L95.386038 204.531217C88.730454 211.186801 87.386538 221.554153 92.250234 229.553653l51.964752 88.378476C132.311731 340.394725 122.584338 364.201237 114.840822 388.903694L15.51903 414.694082C6.367602 416.997938 0.031998 425.253422 0.031998 434.660834l0 154.422349c0 9.407412 6.335604 17.662896 15.487032 19.966752l99.257796 25.726392c7.67952 24.830448 17.534904 48.63696 29.310168 71.03556l-52.028748 88.31448c-4.735704 8.127492-3.455784 18.430848 3.1998 25.086432l109.177176 109.241172c6.71958 6.655584 17.022936 7.935504 25.150428 3.135804l88.31448-51.964752c22.526592 11.83926 46.333104 21.75864 71.03556 29.310168l25.662396 99.321792c2.495844 9.215424 10.751328 15.615024 20.15874 15.615024l154.422349 0c9.407412 0 17.5989-6.335604 19.966752-15.487032l25.790388-99.321792c24.766452-7.67952 48.572964-17.470908 71.099556-29.310168l88.186488 51.964752c8.191488 4.671708 18.430848 3.455784 25.086432-3.1998l109.241172-109.11318c6.71958-6.655584 7.9995-16.95894 3.1998-25.086432l-51.964752-88.31448c11.967252-22.526592 21.75864-46.333104 29.374164-71.03556l99.257796-25.726392C1017.632398 606.746078 1023.968002 598.490594 1023.968002 589.083182L1023.968002 434.660834C1023.84001 425.381414 1017.504406 417.061934 1008.352978 414.758078L1008.352978 414.758078 1008.352978 414.758078 1008.352978 414.758078zM512 738.513843c-124.984188 0-226.545841-101.625648-226.545841-226.545841S387.079808 285.358165 512 285.358165c124.920192 0 226.481845 101.625648 226.481845 226.545841S636.856196 738.513843 512 738.513843L512 738.513843 512 738.513843z" fill="#389BFF" p-id="6804"></path></svg>