<?xml version="1.0" standalone="no"?><!DOCTYPE svg PUBLIC "-//W3C//DTD SVG 1.1//EN"
        "http://www.w3.org/Graphics/SVG/1.1/DTD/svg11.dtd">
<svg class="icon" viewBox="0 0 1024 1024" version="1.1" xmlns="http://www.w3.org/2000/svg"
     width="16" height="16">
    <path d="M953.37931 512C953.37931 268.232939 755.767084 70.62069 512 70.62069 268.232934 70.62069 70.62069 268.232939 70.62069 512 70.62069 755.767061 268.232934 953.37931 512 953.37931 755.767084 953.37931 953.37931 755.767061 953.37931 512ZM547.310345 476.689655 547.310345 264.858364C547.310345 245.21731 531.501374 229.517241 512 229.517241 492.362681 229.517241 476.689655 245.340001 476.689655 264.858364L476.689655 476.689655 264.858359 476.689655C245.217315 476.689655 229.517241 492.498635 229.517241 512 229.517241 531.637326 245.340001 547.310345 264.858359 547.310345L476.689655 547.310345 476.689655 759.141636C476.689655 778.78269 492.498626 794.482759 512 794.482759 531.637319 794.482759 547.310345 778.659999 547.310345 759.141636L547.310345 547.310345 759.141694 547.310345C778.78272 547.310345 794.482759 531.501365 794.482759 512 794.482759 492.362674 778.660017 476.689655 759.141694 476.689655L547.310345 476.689655ZM0 512C0 229.230209 229.230204 0 512 0 794.769832 0 1024 229.230209 1024 512 1024 794.769791 794.769832 1024 512 1024 229.230204 1024 0 794.769791 0 512Z"
          fill="#389BFF"/>
</svg>