<?xml version="1.0" standalone="no"?><!DOCTYPE svg PUBLIC "-//W3C//DTD SVG 1.1//EN"
        "http://www.w3.org/Graphics/SVG/1.1/DTD/svg11.dtd">
<svg class="icon" viewBox="0 0 1024 1024" version="1.1" xmlns="http://www.w3.org/2000/svg" width="16" height="16">
    <path fill-rule="evenodd" clip-rule="evenodd"
          d="M257.706667 199.111111v45.397333l-29.582223 0.056889-7.338666 0.341334a44.600889 44.600889 0 0 0-17.92 5.290666 41.358222 41.358222 0 0 0-15.075556 15.075556 50.631111 50.631111 0 0 0-6.257778 19.342222l-0.853333 8.704-0.284444 8.419556v136.192l-0.284445 7.168a53.589333 53.589333 0 0 1-6.826666 23.324444c-5.006222 8.192-10.808889 14.620444-17.464889 19.285333a78.904889 78.904889 0 0 1-21.276445 10.638223c-5.12 1.592889-9.671111 2.787556-13.539555 3.470222l-5.688889 0.739555-7.452445 8.590223v1.308444l7.850667 8.647111 5.688889 0.682667c4.096 0.568889 8.704 1.479111 13.767111 2.616889 6.940444 1.592889 13.880889 4.721778 20.707556 9.500444 6.542222 4.551111 12.288 11.207111 17.237333 20.138667 3.811556 6.826667 6.144 15.758222 6.997333 26.794667l0.284445 9.329777v131.413334l0.284444 8.476444 0.796445 8.988445a50.631111 50.631111 0 0 0 6.257777 19.285333c3.640889 6.257778 8.590222 11.207111 15.018667 15.018667 5.12 2.958222 11.150222 4.721778 18.204444 5.404444l6.769778 0.284444h29.980445v45.454223h-54.727111l-5.063112-0.341334a86.755556 86.755556 0 0 1-45.112888-20.650666 92.956444 92.956444 0 0 1-21.617778-27.420445 74.012444 74.012444 0 0 1-8.419556-29.639111l-0.398222-9.102222v-137.671111l-0.341333-7.452445a53.475556 53.475556 0 0 0-8.817778-25.372444 67.584 67.584 0 0 0-20.821333-19.911111 80.782222 80.782222 0 0 0-24.234667-9.728l-5.063111-1.024L56.888889 535.210667v-46.705778l3.584-0.398222 7.452444-1.194667c8.476444-1.706667 16.497778-4.664889 24.291556-8.988444 8.021333-4.551111 14.904889-10.524444 20.650667-17.976889a44.771556 44.771556 0 0 0 9.159111-23.552l0.341333-6.371556V286.037333l0.398222-8.760889a73.955556 73.955556 0 0 1 8.362667-29.639111c5.973333-11.207111 13.198222-20.366222 21.617778-27.591111a86.755556 86.755556 0 0 1 45.397333-20.593778l5.347556-0.341333h54.215111z m563.313777 0.056889l5.063112 0.284444a88.234667 88.234667 0 0 1 45.112888 20.593778c8.476444 7.281778 15.701333 16.440889 21.674667 27.591111 4.608 8.533333 7.395556 18.375111 8.362667 29.582223l0.341333 9.102222v137.671111l0.341333 7.452444a54.613333 54.613333 0 0 0 8.419556 25.201778c5.575111 8.533333 12.401778 15.189333 20.48 20.081778 7.964444 4.664889 15.985778 7.964444 24.291556 9.728l7.566222 1.479111 4.437333 0.568889v46.648889l-4.209778 0.568889-7.736889 1.422222a91.306667 91.306667 0 0 0-23.893333 8.931555c-8.021333 4.209778-14.904889 10.126222-20.593778 17.635556a46.193778 46.193778 0 0 0-8.760889 23.608889l-0.341333 6.371555v143.928889l-0.341333 8.704a74.695111 74.695111 0 0 1-8.362667 29.696 95.118222 95.118222 0 0 1-21.731555 27.591111c-8.419556 7.168-17.351111 12.458667-26.567112 15.872a84.536889 84.536889 0 0 1-18.659555 4.721778l-5.404445 0.284445-54.272-0.056889v-45.454222l29.696 0.056888 7.395556-0.341333a40.789333 40.789333 0 0 0 32.938667-20.48 51.712 51.712 0 0 0 6.257777-19.057778l0.796445-8.874666 0.284444-8.362667v-136.248889l0.341334-7.168a52.792889 52.792889 0 0 1 6.826666-23.153778c4.949333-8.305778 10.752-14.734222 17.408-19.342222a69.404444 69.404444 0 0 1 26.225778-11.719111l8.874667-2.161778 5.859555-1.137778 6.997334-8.476444v-1.365333l-7.964445-8.647111-5.575111-0.625778a177.664 177.664 0 0 1-13.824-2.616889 57.685333 57.685333 0 0 1-37.888-29.582222 64.398222 64.398222 0 0 1-6.940444-26.908445l-0.341334-9.329778V302.08l-0.227555-8.419556-0.853334-8.988444a51.541333 51.541333 0 0 0-6.314666-19.285333 40.334222 40.334222 0 0 0-33.166222-20.423111l-6.712889-0.284445-30.151111-0.056889V199.111111l54.840888 0.056889zM394.865778 271.587556l117.475555 182.784 122.538667-182.784h76.572444L556.202667 497.834667v9.784889l167.139555 244.394666h-84.935111l-128.568889-197.404444-130.958222 197.404444H300.202667l167.139555-244.394666v-9.784889L312.092444 271.587556h82.773334z"
          fill="#949DB4"/>
</svg>