<?xml version="1.0" standalone="no"?><!DOCTYPE svg PUBLIC "-//W3C//DTD SVG 1.1//EN"
        "http://www.w3.org/Graphics/SVG/1.1/DTD/svg11.dtd">
<svg class="icon" viewBox="0 0 1024 1024" version="1.1" xmlns="http://www.w3.org/2000/svg" id="mx_n_1735092275878"
     width="16" height="16">
    <path d="M815.812308 1024a36.23961 36.23961 0 0 1-19.980488-6.019122l-270.236097-177.326829-116.136585 136.841366a36.988878 36.988878 0 0 1-28.222439 12.962341 42.908098 42.908098 0 0 1-9.990244-1.348683 36.414439 36.414439 0 0 1-26.224391-29.970732l-38.712195-262.243902-289.717073-190.214244A37.038829 37.038829 0 0 1 0.108894 472.938146a36.189659 36.189659 0 0 1 21.72878-30.570146l949.073171-438.471805a14.73561 14.73561 0 0 1 1.748293-0.824195h0.249756a28.746927 28.746927 0 0 1 2.997073-1.073951c1.498537-0.424585 2.747317-0.699317 3.746341-0.974049a30.395317 30.395317 0 0 1 3.746342-0.674341c1.24878 0 2.747317-0.274732 3.996097-0.274732a29.671024 29.671024 0 0 1 3.24683 0.149853 12.712585 12.712585 0 0 1 2.997073 0.39961c0.999024 0.149854 1.498537 0.274732 2.247805 0.39961a23.077463 23.077463 0 0 1 3.496585 1.098927h0.249756a17.258146 17.258146 0 0 1 2.247805 0.949073h0.249756a33.542244 33.542244 0 0 1 7.742439 4.645463 11.613659 11.613659 0 0 1 1.998049 1.648391l0.249756 0.274731a12.762537 12.762537 0 0 1 1.24878 1.098927 35.190634 35.190634 0 0 1 8.741464 14.061268 25.450146 25.450146 0 0 1 0.749268 2.497561 3.072 3.072 0 0 1 0.499512 1.498537c0.249756 0.824195 0.249756 1.523512 0.499513 2.322732v0.149853a39.436488 39.436488 0 0 1 0.249756 7.642537c0 0.974049-0.249756 1.923122-0.249756 2.747317l-0.249757 0.674342v0.549463l-171.332682 949.847415a36.839024 36.839024 0 0 1-36.464391 30.994731z m-21.229268-74.926829l180.823415-869.15122-587.176586 604.409756z m-396.612683-49.95122L474.645479 812.056976l-99.652683-63.063415z m-53.697561-249.756097L849.029869 133.51961l-5.74439-8.441756L75.285479 466.71922z"
          fill="#389BFF"/>
</svg>