<?xml version="1.0" standalone="no"?><!DOCTYPE svg PUBLIC "-//W3C//DTD SVG 1.1//EN" "http://www.w3.org/Graphics/SVG/1.1/DTD/svg11.dtd">
<svg t="1735113677138" class="icon" viewBox="0 0 1024 1024" version="1.1" xmlns="http://www.w3.org/2000/svg"  xmlns:xlink="http://www.w3.org/1999/xlink" width="16" height="16">
    <path d="M791.364 325.887l116.625 526.009-57.239 0.25-103.938-228.475-128.694-118.504z"
          fill="#F2BA21"/>
    <path d="M850.75 868.021a15.876 15.876 0 0 1-14.441-9.299L733.69 633.177l-126.315-116.34a15.845 15.845 0 0 1-5.125-11.218 15.882 15.882 0 0 1 4.459-11.486l173.246-179.28c4.049-4.215 10.147-5.892 15.725-4.239a15.887 15.887 0 0 1 11.185 11.843l116.624 526.017a15.856 15.856 0 0 1-3.104 13.329 15.863 15.863 0 0 1-12.336 5.97l-57.233 0.249-0.066-0.001z m-209.922-363.52l116.726 107.493a15.738 15.738 0 0 1 3.704 5.106l99.683 219.137 27.294-0.119L782.25 358.145 640.828 504.501z"
          fill="#389BFF"/>
    <path d="M22.853 534.797L0 512.771 494.442 0l22.859 22.026z"
          fill="#389BFF"/>
    <path d="M716.438 258.231L189.964 143.776v57.216L418.88 304.021 537.9 432.203z"
          fill="#F2BA21"/>
    <path d="M537.9 448.07h-0.394a15.913 15.913 0 0 1-11.242-5.065L409.433 317.183 183.454 215.456a15.85 15.85 0 0 1-9.357-14.464v-57.215c0-4.792 2.17-9.34 5.91-12.36 3.739-3.014 8.597-4.257 13.329-3.139l526.468 114.455a15.898 15.898 0 0 1 11.886 11.117 15.9 15.9 0 0 1-4.175 15.749L548.977 443.564a15.882 15.882 0 0 1-11.077 4.506zM205.831 190.725l219.553 98.832a15.78 15.78 0 0 1 5.125 3.662L538.46 409.493 684.222 267.47 205.831 163.466v27.259z"
          fill="#389BFF"/>
    <path d="M395.979 566.288l-206.015-42.507-22.895 64.082 114.479 68.684v59.516z"
          fill="#EDEDEC"/>
    <path d="M281.548 731.925c-1.694 0-3.413-0.262-5.083-0.844-6.45-2.164-10.791-8.229-10.791-15.018v-50.527l-106.768-64.06c-6.486-3.905-9.322-11.843-6.778-18.946l22.895-64.082c2.646-7.455 10.273-11.961 18.145-10.202l206.016 42.501a15.829 15.829 0 0 1 11.658 9.98 15.82 15.82 0 0 1-2.253 15.19L294.151 725.683a15.824 15.824 0 0 1-12.603 6.242z m-95.157-150.987l103.32 61.988a15.925 15.925 0 0 1 7.705 13.62v12.604l70.627-92.43-167.771-34.61-13.881 38.828z"
          fill="#389BFF"/>
    <path d="M484.626 647.659l43.441 205.831-64.1 23.151-69.141-114.17-59.511 0.25z"
          fill="#EDEDEC"/>
    <path d="M463.967 892.502c-5.416 0-10.642-2.782-13.579-7.646L385.896 778.38l-50.521 0.202c-5.25 0.499-12.871-4.257-15.065-10.725a15.838 15.838 0 0 1 5.31-17.705l149.316-115.057c4.341-3.322 10.006-4.173 15.19-2.336 5.106 1.902 8.906 6.284 10.023 11.616l43.435 205.831c1.652 7.753-2.688 15.519-10.124 18.204l-64.101 23.139a15.818 15.818 0 0 1-5.392 0.953z m-69.141-145.904c5.559 0 10.701 2.9 13.573 7.646l62.405 103.052 38.894-14.03-35.379-167.622-92.161 71.016 12.604-0.061 0.064-0.001z"
          fill="#389BFF"/>
    <path d="M847.854 104.289s102.95-93.897 146.469-50.379c43.519 43.494-41.205 151.071-41.205 151.071L449.544 708.597S273.902 854.74 234.349 815.228C200.005 780.9 357.96 600.051 357.96 600.051l489.894-495.762z"
          fill="#52A3CB"/>
    <path d="M253.754 837.866c-12.728 0-23.043-3.84-30.623-11.426-39.018-38.988 60.236-165.119 122.885-236.823L836.576 93.13c7.996-7.336 74.534-66.603 127.95-66.603 16.485 0 30.291 5.434 41.016 16.159 51.99 51.972-30.396 159.959-39.963 172.111L460.763 719.82c-15.475 12.961-143.616 118.046-207.009 118.046zM964.526 58.268c-34.903 0-88.338 41.681-105.989 57.756L369.244 611.21c-73.214 83.896-132.415 176.242-123.509 192.995 1.593 1.558 5.25 1.927 8.02 1.927 44.053 0 148.943-79.201 185.643-109.723L941.9 193.763c23.513-30.106 66.495-103.361 41.199-128.634-4.691-4.691-10.576-6.861-18.573-6.861z"
          fill="#389BFF"/>
    <path d="M603.63 773.814l-21.527-23.352 187.704-173.121 21.533 23.351z"
          fill="#389BFF"/>
    <path d="M576.604 1020.227l-22.521-22.354L709.762 840.97l22.525 22.365z"
          fill="#222323"/>
</svg>