<svg class="icon" viewBox="0 0 1024 1024" version="1.1" xmlns="http://www.w3.org/2000/svg"
     width="16" height="16">
    <path d="M815.9 253.1c0-11.6-4.4-23.1-13.1-31.8-17.5-17.5-46.1-17.5-63.6 0L218.4 742.1c-8.7 8.7-13.1 20.3-13.1 31.8s4.3 23 13.1 31.8c17.5 17.5 46.1 17.5 63.6 0l520.8-520.8c8.7-8.7 13.1-20.3 13.1-31.8zM914.6 742L742 914.6c-15.6 15.6-41 15.6-56.6 0-15.6-15.6-15.6-41 0-56.6L858 685.4c15.6-15.6 41-15.6 56.6 0 15.5 15.6 15.5 41.1 0 56.6z"
          fill="#389BFF"/>
    <path d="M742 685.4L914.6 858c15.6 15.6 15.6 41 0 56.6-15.6 15.6-41 15.6-56.6 0L685.4 742c-15.6-15.6-15.6-41 0-56.6 15.6-15.5 41.1-15.5 56.6 0z"
          fill="#389BFF"/>
    <path d="M515 887.9h-3c-50.7 0-99.9-9.9-146.2-29.5-44.7-18.9-84.9-46-119.4-80.6-34.5-34.5-61.6-74.7-80.6-119.5-19.6-46.3-29.5-95.5-29.5-146.2s9.9-99.9 29.5-146.2c18.9-44.7 46-84.9 80.6-119.5 34.5-34.5 74.7-61.6 119.4-80.6 46.3-19.6 95.5-29.5 146.2-29.5s99.9 9.9 146.2 29.5c44.7 18.9 84.9 46 119.5 80.6 34.5 34.5 61.6 74.7 80.6 119.5 19.6 46.3 29.5 95.5 29.5 146.2v0.7h69.9v-0.8c0-246.1-199.6-445.7-445.7-445.7S66.3 265.9 66.3 512 265.9 957.7 512 957.7h3v-69.8z"
          fill="#389BFF"/>
</svg>