<?xml version="1.0" standalone="no"?><!DOCTYPE svg PUBLIC "-//W3C//DTD SVG 1.1//EN"
        "http://www.w3.org/Graphics/SVG/1.1/DTD/svg11.dtd">
<svg class="icon" viewBox="0 0 1024 1024" version="1.1" xmlns="http://www.w3.org/2000/svg"
     width="16" height="16">
    <path d="M22.734635 301.822868l474.62222 259.071029c4.735982 1.919993 9.855963 2.943989 14.975944 3.007988 4.991981 0 11.007959-2.047992 14.975944-3.007988l480.638197-259.071029a28.991891 28.991891 0 0 0 15.99994-28.991891 29.887888 29.887888 0 0 0-17.023936-28.031895L532.300724 3.839986a29.823888 29.823888 0 0 0-28.927892 0L23.694631 244.799082a30.719885 30.719885 0 0 0-17.983932 28.031895c0 12.991951 6.015977 23.039914 16.959936 28.991891z m494.590145-234.047122l405.630479 207.039223-410.62246 221.055171-405.630479-221.055171 410.62246-207.039223z m483.582187 412.094454l-94.911644-47.99982-67.903746 36.991862 79.871701 40.959846-410.62246 221.119171-405.630479-221.055171 84.927681-43.007839-67.967745-37.055861-100.927621 50.047812c-22.975914 11.967955-23.93591 44.991831-0.959997 56.959787l474.558221 259.135028a31.615881 31.615881 0 0 0 15.99994 3.967985 28.159894 28.159894 0 0 0 14.975943-3.967985l479.614202-259.071028a31.87188 31.87188 0 0 0-1.023996-57.023787z m0 223.99916l-89.919663-43.967835-67.903746 36.991862 74.87972 37.055861-410.62246 221.055171-405.630479-221.055171 78.911704-36.031865-67.967745-36.991861-94.911644 43.007838c-22.975914 11.967955-23.93591 44.991831-0.959997 56.959787l474.558221 259.071028c6.015977 2.047992 9.983963 4.031985 15.99994 4.031985a28.159894 28.159894 0 0 0 14.975943-4.031985l479.614202-259.007029a31.87188 31.87188 0 0 0-1.023996-57.023786z"
          fill="#389BFF" />
</svg>